<svg width="11" height="10" viewBox="0 0 11 10" fill="none" xmlns="http://www.w3.org/2000/svg">
<path d="M10.2447 3.4074C10.2395 3.01523 10.1661 2.62696 10.0277 2.25996C9.90779 1.95039 9.72458 1.66925 9.48983 1.4345C9.25508 1.19974 8.97394 1.01654 8.66437 0.89659C8.30208 0.760593 7.91935 0.687057 7.53246 0.679114C7.03434 0.656848 6.87641 0.650635 5.61194 0.650635C4.34748 0.650635 4.18541 0.650635 3.69091 0.679114C3.30419 0.687116 2.92164 0.760651 2.55952 0.89659C2.2499 1.01645 1.96872 1.19963 1.73395 1.43439C1.49919 1.66916 1.31601 1.95034 1.19615 2.25996C1.05988 2.62197 0.986505 3.00461 0.979192 3.39135C0.956927 3.88999 0.950195 4.04792 0.950195 5.31238C0.950195 6.57685 0.950195 6.7384 0.979192 7.23342C0.986959 7.62073 1.05997 8.00287 1.19615 8.36584C1.31622 8.67536 1.49953 8.95644 1.73437 9.1911C1.96921 9.42576 2.25042 9.60886 2.56003 9.72869C2.92116 9.87015 3.30379 9.94895 3.69143 9.9617C4.19007 9.98397 4.34799 9.9907 5.61246 9.9907C6.87693 9.9907 7.039 9.9907 7.5335 9.9617C7.92037 9.95408 8.30313 9.88072 8.6654 9.74474C8.97489 9.62466 9.25596 9.4414 9.49069 9.20667C9.72543 8.97193 9.90868 8.69086 10.0288 8.38138C10.165 8.01892 10.238 7.63678 10.2457 7.24895C10.268 6.75083 10.2747 6.5929 10.2747 5.32792C10.2737 4.06345 10.2737 3.90293 10.2447 3.4074ZM5.60884 7.70358C4.28638 7.70358 3.21505 6.63225 3.21505 5.30979C3.21505 3.98733 4.28638 2.91601 5.60884 2.91601C6.24371 2.91601 6.85258 3.16821 7.3015 3.61713C7.75042 4.06605 8.00262 4.67492 8.00262 5.30979C8.00262 5.94466 7.75042 6.55353 7.3015 7.00246C6.85258 7.45138 6.24371 7.70358 5.60884 7.70358ZM8.0979 3.38565C7.78877 3.38565 7.53971 3.13607 7.53971 2.82746C7.53971 2.75419 7.55414 2.68164 7.58218 2.61395C7.61022 2.54626 7.65132 2.48476 7.70312 2.43295C7.75493 2.38114 7.81644 2.34004 7.88413 2.312C7.95182 2.28397 8.02437 2.26953 8.09764 2.26953C8.17091 2.26953 8.24346 2.28397 8.31115 2.312C8.37884 2.34004 8.44035 2.38114 8.49215 2.43295C8.54396 2.48476 8.58506 2.54626 8.6131 2.61395C8.64114 2.68164 8.65557 2.75419 8.65557 2.82746C8.65557 3.13607 8.40599 3.38565 8.0979 3.38565Z" fill="white"/>
</svg>
