<svg width="14" height="13" viewBox="0 0 14 13" fill="none" xmlns="http://www.w3.org/2000/svg">
<path d="M12.9329 2.66303C12.5006 2.85461 12.0361 2.98406 11.5478 3.04257C12.0516 2.74111 12.4286 2.26664 12.6083 1.70769C12.1349 1.98885 11.6169 2.18675 11.0766 2.2928C10.7133 1.9049 10.2321 1.64779 9.70773 1.5614C9.18334 1.475 8.64509 1.56415 8.17655 1.815C7.70802 2.06586 7.33541 2.46438 7.11657 2.9487C6.89774 3.43302 6.84493 3.97604 6.96633 4.49345C6.0072 4.44529 5.06892 4.196 4.21238 3.76175C3.35583 3.3275 2.60016 2.718 1.99442 1.9728C1.7873 2.33008 1.66821 2.74432 1.66821 3.18549C1.66798 3.58264 1.76578 3.9737 1.95294 4.32399C2.14009 4.67428 2.41082 4.97295 2.74109 5.19351C2.35806 5.18133 1.98348 5.07783 1.64853 4.89164V4.9227C1.64849 5.47972 1.84117 6.0196 2.19387 6.45073C2.54657 6.88186 3.03757 7.17768 3.58355 7.28801C3.22823 7.38417 2.8557 7.39834 2.4941 7.32944C2.64814 7.80872 2.94821 8.22783 3.35228 8.5281C3.75636 8.82837 4.24422 8.99477 4.74756 9.004C3.89311 9.67476 2.83786 10.0386 1.75157 10.037C1.55915 10.0371 1.36689 10.0258 1.17578 10.0034C2.27842 10.7123 3.56198 11.0886 4.87287 11.0871C9.31041 11.0871 11.7363 7.41177 11.7363 4.22419C11.7363 4.12063 11.7337 4.01604 11.729 3.91248C12.2009 3.57123 12.6082 3.14867 12.9319 2.66458L12.9329 2.66303Z" fill="white"/>
</svg>
